<svg width="37" height="41" viewBox="0 0 37 41" fill="none" xmlns="http://www.w3.org/2000/svg">
<circle cx="23" cy="14.2954" r="14" fill="#FFC700" fill-opacity="0.5"/>
<path d="M12.2129 23.7887C12.1729 23.7887 12.1463 23.7887 12.1063 23.7887C12.0396 23.7754 11.9463 23.7754 11.8663 23.7887C7.99959 23.6687 5.07959 20.6287 5.07959 16.882C5.07959 13.0687 8.18626 9.96204 11.9996 9.96204C15.8129 9.96204 18.9196 13.0687 18.9196 16.882C18.9063 20.6287 15.9729 23.6687 12.2529 23.7887C12.2396 23.7887 12.2263 23.7887 12.2129 23.7887ZM11.9996 11.962C9.29292 11.962 7.07959 14.1754 7.07959 16.882C7.07959 19.5487 9.15959 21.6954 11.8129 21.7887C11.8929 21.7754 12.0663 21.7754 12.2396 21.7887C14.8529 21.6687 16.9063 19.522 16.9196 16.882C16.9196 14.1754 14.7063 11.962 11.9996 11.962Z" fill="#3360FF"/>
<path d="M22.0529 23.9621C22.0129 23.9621 21.9729 23.9621 21.9329 23.9488C21.3862 24.0021 20.8262 23.6155 20.7729 23.0688C20.7196 22.5221 21.0529 22.0288 21.5996 21.9621C21.7596 21.9488 21.9329 21.9488 22.0796 21.9488C24.0262 21.8421 25.5462 20.2421 25.5462 18.2821C25.5462 16.2555 23.9062 14.6155 21.8796 14.6155C21.3329 14.6288 20.8796 14.1755 20.8796 13.6288C20.8796 13.0821 21.3329 12.6288 21.8796 12.6288C24.9996 12.6288 27.5462 15.1755 27.5462 18.2955C27.5462 21.3621 25.1462 23.8421 22.0929 23.9621C22.0796 23.9621 22.0662 23.9621 22.0529 23.9621Z" fill="#3360FF"/>
<path d="M12.2261 38.3621C9.61281 38.3621 6.98615 37.6954 4.99948 36.3621C3.14615 35.1354 2.13281 33.4555 2.13281 31.6288C2.13281 29.8021 3.14615 28.1088 4.99948 26.8688C8.99948 24.2155 15.4795 24.2155 19.4528 26.8688C21.2928 28.0955 22.3195 29.7754 22.3195 31.6021C22.3195 33.4288 21.3061 35.1221 19.4528 36.3621C17.4528 37.6954 14.8395 38.3621 12.2261 38.3621ZM6.10615 28.5488C4.82615 29.4021 4.13281 30.4955 4.13281 31.6421C4.13281 32.7755 4.83948 33.8688 6.10615 34.7088C9.42615 36.9354 15.0261 36.9354 18.3461 34.7088C19.6261 33.8554 20.3195 32.7621 20.3195 31.6154C20.3195 30.4821 19.6128 29.3888 18.3461 28.5488C15.0261 26.3354 9.42615 26.3354 6.10615 28.5488Z" fill="#3360FF"/>
<path d="M24.4528 35.9621C23.9862 35.9621 23.5728 35.6421 23.4795 35.1621C23.3728 34.6154 23.7195 34.0954 24.2528 33.9754C25.0928 33.8021 25.8662 33.4688 26.4662 33.0021C27.2262 32.4288 27.6395 31.7088 27.6395 30.9488C27.6395 30.1888 27.2262 29.4688 26.4795 28.9088C25.8928 28.4554 25.1595 28.1354 24.2928 27.9354C23.7595 27.8154 23.4128 27.2821 23.5328 26.7354C23.6528 26.2021 24.1862 25.8554 24.7328 25.9754C25.8795 26.2288 26.8795 26.6821 27.6928 27.3088C28.9328 28.2421 29.6395 29.5621 29.6395 30.9488C29.6395 32.3354 28.9195 33.6554 27.6795 34.6021C26.8528 35.2421 25.8128 35.7088 24.6662 35.9354C24.5862 35.9621 24.5195 35.9621 24.4528 35.9621Z" fill="#3360FF"/>
</svg>
