<svg width="37" height="41" viewBox="0 0 37 41" fill="none" xmlns="http://www.w3.org/2000/svg">
<circle cx="23" cy="14.4194" r="14" fill="#FFC700" fill-opacity="0.5"/>
<path d="M16.0001 30.8523C15.4667 30.8523 14.9334 30.8121 14.4267 30.7185C11.6001 30.3038 9.02675 28.6718 7.40008 26.2506C6.26675 24.5383 5.66675 22.5451 5.66675 20.485C5.66675 14.773 10.3067 10.1178 16.0001 10.1178C21.6934 10.1178 26.3334 14.773 26.3334 20.485C26.3334 22.5451 25.7334 24.5383 24.6001 26.2506C22.9601 28.6852 20.3867 30.3038 17.5334 30.7319C17.0667 30.8122 16.5334 30.8523 16.0001 30.8523ZM16.0001 12.1244C11.4001 12.1244 7.66675 15.8699 7.66675 20.485C7.66675 22.1572 8.14675 23.7624 9.05341 25.1269C10.3734 27.0799 12.4401 28.3909 14.7334 28.7253C15.5867 28.8725 16.4267 28.8725 17.2134 28.7253C19.5467 28.3909 21.6134 27.0666 22.9334 25.1135C23.8401 23.749 24.3201 22.1438 24.3201 20.4716C24.3334 15.8699 20.6001 12.1244 16.0001 12.1244Z" fill="#3360FF"/>
<path d="M8.62577 38.6644C8.43911 38.6644 8.26577 38.6377 8.07911 38.5976C7.21244 38.3969 6.54577 37.728 6.34577 36.8585L5.87911 34.8921C5.85244 34.7717 5.75911 34.678 5.62577 34.6379L3.42577 34.1162C2.59911 33.9156 1.94577 33.3002 1.71911 32.4842C1.49244 31.6682 1.71911 30.7853 2.31911 30.1834L7.51911 24.9663C7.73244 24.7523 8.02577 24.6453 8.31911 24.672C8.61244 24.6988 8.87911 24.8593 9.05244 25.1134C10.3724 27.0665 12.4391 28.3908 14.7458 28.7253C15.5991 28.8724 16.4391 28.8724 17.2258 28.7253C19.5591 28.3908 21.6258 27.0665 22.9458 25.1134C23.1058 24.8593 23.3858 24.6988 23.6791 24.672C23.9724 24.6453 24.2658 24.7523 24.4791 24.9663L29.6791 30.1834C30.2791 30.7853 30.5058 31.6682 30.2791 32.4842C30.0524 33.3002 29.3858 33.9289 28.5724 34.1162L26.3724 34.6379C26.2524 34.6647 26.1591 34.7583 26.1191 34.8921L25.6524 36.8585C25.4524 37.728 24.7858 38.3969 23.9191 38.5976C23.0524 38.8116 22.1591 38.5039 21.5991 37.8217L15.9991 31.3606L10.3991 37.8351C9.94577 38.3701 9.30577 38.6644 8.62577 38.6644ZM8.11911 27.2136L3.73244 31.6147C3.61244 31.7351 3.62577 31.8689 3.65244 31.9491C3.66577 32.016 3.73244 32.1498 3.89244 32.1765L6.09244 32.6983C6.95911 32.8989 7.62577 33.5678 7.82577 34.4373L8.29244 36.4037C8.33244 36.5776 8.46577 36.6311 8.54577 36.6579C8.62577 36.6712 8.75911 36.6846 8.87911 36.5509L13.9858 30.6516C11.7191 30.2101 9.63911 28.9928 8.11911 27.2136ZM18.0124 30.6382L23.1191 36.5241C23.2391 36.6712 23.3858 36.6712 23.4658 36.6445C23.5458 36.6311 23.6658 36.5642 23.7191 36.3903L24.1858 34.4239C24.3858 33.5544 25.0524 32.8855 25.9191 32.6849L28.1191 32.1632C28.2791 32.1231 28.3458 32.0026 28.3591 31.9358C28.3858 31.8689 28.3991 31.7217 28.2791 31.6013L23.8924 27.2003C22.3591 28.9794 20.2924 30.1967 18.0124 30.6382Z" fill="#3360FF"/>
<path d="M18.5201 25.6887C18.1734 25.6887 17.7601 25.5951 17.2668 25.3008L16.0001 24.5383L14.7334 25.2874C13.5734 25.983 12.8134 25.5817 12.5334 25.381C12.2534 25.1804 11.6534 24.5784 11.9601 23.2541L12.2801 21.8763L11.2134 20.8863C10.6268 20.2977 10.4134 19.5888 10.6134 18.9467C10.8134 18.3046 11.4001 17.8497 12.2268 17.716L13.6534 17.4752L14.3334 15.977C14.7201 15.2145 15.3201 14.7864 16.0001 14.7864C16.6801 14.7864 17.2934 15.2279 17.6668 15.9903L18.4534 17.5688L19.7734 17.7294C20.5868 17.8631 21.1734 18.3179 21.3868 18.96C21.5868 19.6021 21.3734 20.3111 20.7868 20.8997L19.6801 22.01L20.0268 23.2541C20.3334 24.5784 19.7334 25.1804 19.4534 25.381C19.3068 25.5014 18.9868 25.6887 18.5201 25.6887ZM12.8134 19.669L13.7334 20.592C14.1601 21.0201 14.3734 21.7425 14.2401 22.3311L13.9868 23.4012L15.0534 22.7725C15.6268 22.4381 16.4001 22.4381 16.9601 22.7725L18.0268 23.4012L17.7868 22.3311C17.6534 21.7291 17.8534 21.0201 18.2801 20.592L19.2001 19.669L18.0401 19.4684C17.4801 19.3747 16.9201 18.9601 16.6668 18.4517L16.0001 17.1408L15.3334 18.4785C15.0934 18.9734 14.5334 19.4015 13.9734 19.4951L12.8134 19.669Z" fill="#3360FF"/>
</svg>
