<svg width="45" height="48" viewBox="0 0 45 48" fill="none" xmlns="http://www.w3.org/2000/svg">
<g filter="url(#filter0_d_2_1228)">
<circle cx="27" cy="14" r="14" fill="#FFC700" fill-opacity="0.5"/>
<path d="M20 38.3333C12.0933 38.3333 5.66663 31.9066 5.66663 24C5.66663 16.0933 12.0933 9.66663 20 9.66663C27.9066 9.66663 34.3333 16.0933 34.3333 24C34.3333 31.9066 27.9066 38.3333 20 38.3333ZM20 11.6666C13.2 11.6666 7.66663 17.2 7.66663 24C7.66663 30.8 13.2 36.3333 20 36.3333C26.8 36.3333 32.3333 30.8 32.3333 24C32.3333 17.2 26.8 11.6666 20 11.6666Z" fill="#3360FF"/>
<path d="M24.9467 29.24C24.7734 29.24 24.6 29.2 24.44 29.0933L20.3067 26.6266C19.28 26.0133 18.52 24.6666 18.52 23.48V18.0133C18.52 17.4666 18.9734 17.0133 19.52 17.0133C20.0667 17.0133 20.52 17.4666 20.52 18.0133V23.48C20.52 23.96 20.92 24.6666 21.3334 24.9066L25.4667 27.3733C25.9467 27.6533 26.0934 28.2666 25.8134 28.7466C25.6134 29.0666 25.28 29.24 24.9467 29.24Z" fill="#3360FF"/>
</g>
<defs>
<filter id="filter0_d_2_1228" x="0" y="0" width="45" height="48" filterUnits="userSpaceOnUse" color-interpolation-filters="sRGB">
<feFlood flood-opacity="0" result="BackgroundImageFix"/>
<feColorMatrix in="SourceAlpha" type="matrix" values="0 0 0 0 0 0 0 0 0 0 0 0 0 0 0 0 0 0 127 0" result="hardAlpha"/>
<feOffset dy="4"/>
<feGaussianBlur stdDeviation="2"/>
<feComposite in2="hardAlpha" operator="out"/>
<feColorMatrix type="matrix" values="0 0 0 0 0 0 0 0 0 0 0 0 0 0 0 0 0 0 0.25 0"/>
<feBlend mode="normal" in2="BackgroundImageFix" result="effect1_dropShadow_2_1228"/>
<feBlend mode="normal" in="SourceGraphic" in2="effect1_dropShadow_2_1228" result="shape"/>
</filter>
</defs>
</svg>
